<?xml version="1.0" encoding="utf-8"?>
<!-- Generator: Adobe Illustrator 22.0.0, SVG Export Plug-In . SVG Version: 6.00 Build 0)  -->
<svg version="1.1" id="Capa_1" xmlns="http://www.w3.org/2000/svg" xmlns:xlink="http://www.w3.org/1999/xlink" x="0px" y="0px"
	 viewBox="0 0 1920 1080" style="enable-background:new 0 0 1920 1080;" xml:space="preserve">
<style type="text/css">
	.st0{stroke:#FFFFFF;stroke-width:4;stroke-miterlimit:10;}
</style>
<polygon id="tower" points="1066,950 1068,878 1072,691 1051,691 1051,685 1049,685 1049,674 1052,674 1052,662 1049,662 1049,652 
	1053,652 1053,639 1050,639 1050,627 1053,627 1053,611 1050,611 1050,603 1053,603 1053,593 1050,593 1050,579 1053,579 1053,567 
	1050,567 1050,555 1054,555 1054,543 1050,543 1050,529 1054,529 1054,515 1050,515 1050,506 1054,506 1054,493 1050,493 1050,481 
	1055,481 1055,471 1051,471 1051,456 1056,456 1056,438 1052,438 1052,430 1056,430 1056,418 1052,418 1052,405 1057,405 1057,392 
	1053,392 1053,378 1057,378 1057,366 1053,366 1053,352 1058,352 1058,342 1054,342 1054,330 1058,330 1058,319 1054,319 1054,299 
	1059,299 1059,288 1056,288 1056,273 1059,273 1059,264 1056,264 1056,243 1057,180 994,180 994,156 989,156 989,126 925,126 
	913,129 913,179 858,179 840,186 840,201 830,208 842,746 796,869 800,1017 904,1025 919,943 "/>
<circle id="marker" class="st0" cx="960" cy="540" r="22"/>
</svg>
