<?xml version="1.0" encoding="utf-8"?>
<!-- Generator: Adobe Illustrator 22.0.0, SVG Export Plug-In . SVG Version: 6.00 Build 0)  -->
<svg version="1.1" id="Capa_1" xmlns="http://www.w3.org/2000/svg" xmlns:xlink="http://www.w3.org/1999/xlink" x="0px" y="0px"
	 viewBox="0 0 1920 1080" style="enable-background:new 0 0 1920 1080;" xml:space="preserve">
<style type="text/css">
	.st0{stroke:#FFFFFF;stroke-width:4;stroke-miterlimit:10;}
</style>
<image style="display:none;overflow:visible;" width="1920" height="1080" xlink:href="home-img.jpg" >
</image>
<polygon id="tower" points="1154,782 1092,744 1106,197 1066,192 1066,178 1059,178 1059,162 1034,161 1034,158 1018,158 1018,160 
	1012,160 1012,126 954,124 898,124 894,126 894,177 852,178 864,762 864,788 910,823 910,858 915,863 916,979 986,979 997,993 
	1150,941 1151,874 "/>
<circle id="marker" class="st0" cx="1003" cy="571" r="22"/>
</svg>
