<svg preserveAspectRatio="xMidYMid slice" id="_03_swipe_00_piso_9" data-name="03_swipe_00_piso 9" xmlns="http://www.w3.org/2000/svg" width="1920" height="1080" viewBox="0 0 1920 1080">
  <rect id="Frame" width="1920" height="1080" style="fill: none"/>
  <path id="f" d="M654.09,792.68c-45,0-91-.1-136,.1-4.8,0-5.9-1.3-5-5.9,1.9-10.3,2.1-18.8,3.9-29.1.6-3.6-.3-4.6-3.9-4.6-13,.2-25,0-38,.2-4,.1-4.7-1.1-4-4.9,14.6-86.1,29.2-174.2,43.6-260.3.7-4.2,2.3-5.3,6.4-5.3,54.8.1,110.61.1,165.41.1,23,0,46,.1,69-.1,4.1,0,5,1.2,4.6,5.1-2.1,25.9-3.9,51.8-6,77.7-.4,4.3.4,5.7,5.1,5.7,19.8-.1,39.71.3,59.51.2,4.1,0,5.1,1.3,4.8,5.2-.7,10-1.2,20-1.5,29.9-.1,3.1-1.2,3.9-4.2,4-4.2.2-9.8-2.1-12.3,1.2-2.1,2.8-1.1,8-1.4,12.1-3.1,54.2-6.2,108.5-9,162.7-.3,5.1-2,5.8-6.51,5.8q-67.2.15-134.5.2Z" style="fill: #3159ff"/>
  <path id="e" d="M978.7,614c54.31,0,108.61.1,163-.1,5,0,6.4,1.5,6.8,6.4q5.55,83.1,11.5,166c.3,4.6-.8,6.1-5.6,6-18-.2-36,0-54-.2-3.9,0-5.6.7-5.3,5.2.9,13.6.7,13.6-12.8,13.6-26.3,0-52.7-.1-79,.1-4.4,0-5.7-1.2-5.7-5.6,0-13-.1-13.1-12.91-13.1q-89.4,0-178.9.1c-7.1,0-7,0-6.6-7.2q4.35-81.9,8.8-163.7c.4-7.5.4-7.5,7.9-7.5q81.3.15,162.8,0Z" style="fill: #3159ff"/>
  <path id="d" d="M1266.22,481.68h111.4c1.7,0,3.3.1,5,.1,3-.1,4.5,1.1,5,4.2,3.81,23.8,7.91,47.7,11.81,71.5q7.35,45.15,14.8,90.2c2.2,13.1,4.3,30.3,6.6,43.4.6,3.4-.3,4.4-3.6,4.4-8.7-.2-12.3-.1-21-.1-7.61,0-7.41,0-6.31,7.2,4.41,28.8,6.61,54.7,11.11,83.5.7,4.2-.4,5.5-4.7,5.5-74.71-.1-152.31,0-227,.1-3.8,0-5.2-1.1-5.5-5-3.9-56.7-8-114.3-11.9-171-.3-3.9-1.8-4.6-5.3-4.6-12.3.2-24.7-.1-37,.2-4.1.1-5.6-1.4-5.6-5.4-.2-8.8-.6-17.7-1.3-26.5-.3-3.8,1.3-4.5,4.6-4.5,12.3.1,24.7,0,37,0,7.6,0,7.5,0,7-7.8l-5.7-78.3c-.5-6.7-.4-6.7,6.6-6.7h114Z" style="fill: #3159ff"/>
  <path id="c" d="M1265.22,479.08H1151.71c-6.9,0-7,0-7.5-7.1-1.7-23.6-3.2-47.2-5-70.8-.7-9,.8-8.3-8.8-8.3-10.8,0-21.7-.2-32.5.1-4.1.1-5.6-1.4-5.6-5.4-.1-7-.5-14-1-21-.2-3.4,1-4.8,4.5-4.7,10.8.1,21.7-.1,32.5.1,4,.1,5.6-.9,5.2-5.3-3-39.5-5.7-79.1-8.6-118.6-.6-7.9-.8-7.9,6.9-7.9,58.51,0,119,0,177.51-.2,5.1,0,6.9,1.5,7.6,6.5,2.7,19.1,5.8,41.2,8.5,60.3.5,3.9,1.8,5.5,5.9,5.3,7.7-.3,13.3,0,21-.2,3.2-.1,4.7.9,5.2,4.3,9.2,56.1,18.4,109.1,27.7,165.1.2,1.5.3,3,.5,4.5.4,2.4-.8,3.3-3.1,3.3-4-.1-8,0-12,0Z" style="fill: #3159ff"/>
  <path id="b" d="M975.9,359.58H828.5c-6.3,0-6.4,0-6.1-6.2,2.1-39.7,4.4-79.5,6.4-119.2.2-3.7,1.2-5.2,5.2-5.2,48.8.1,97.6,0,146.4,0a33.79,33.79,0,0,1,4.5,0c3.9.6,4.7-1.3,4.7-4.9-.2-7.5,0-7.5,7.41-7.5,21.5,0,43,.1,64.5-.1,4.5,0,6.6.9,6.5,5.9-.2,6.7.2,6.7,7,6.7,13.8,0,27.7.1,41.5-.1,3.2,0,4.8.8,5,4.4,2.6,39.4,5.4,78.8,8.1,118.1.6,8.7,1.2,8-7.8,8q-72.9,0-145.91.1Z" style="fill: #3159ff"/>
  <path id="a" d="M639,478.68c-38.7,0-78.31-.1-117,.1-4.5,0-5.6-.9-4.8-5.6,12-70.1,23.8-144.3,35.5-214.4.8-4.8,2.3-6.7,7.5-6.4,9.6.5,20.3,0,30,.2,3.51.1,5.11-.9,5.41-4.5.7-6.3,1.1-8.5,1.7-14.8.4-3.4,1.7-4.4,5.1-4.4,14,.1,29,0,43,0q86.7,0,173.51.1c7.6,0,7.3-1.1,6.8,7.4q-3.3,59.85-6.8,119.8c-.3,5.2,1,6.5,6.1,6.3,9.1-.4,9.1-.1,8.7,8.8-.3,6.3-.9,12.6-.9,19,0,4.1-1.3,5.4-5.5,5.4-17.8-.1-35.7.2-53.51.3-6.8,0-6.7,0-7.2,6.6-1.7,23.4-3.7,46.8-5.2,70.3-.3,5.2-2.2,6.1-6.9,6.1-38.5-.4-77-.4-115.5-.3Z" style="fill: #3159ff"/>
</svg>
