<?xml version="1.0" encoding="UTF-8"?>
<svg id="Layer_2" data-name="Layer 2" xmlns="http://www.w3.org/2000/svg" viewBox="0 0 1920 1080">
  <defs>
    <style>
      .cls-1 {
        fill: none;
        stroke: #fff;
        stroke-miterlimit: 10;
      }
    </style>
  </defs>
  <polygon class="cls-1" points="501.47 479.89 763.94 479.89 768.53 393.09 823.68 393.09 823.68 386.96 836.96 386.96 839.51 357.85 823.68 357.85 829.81 224.06 599.51 224.06 596.45 251.13 554.57 252.15 517.3 470.7 504.53 472.74 501.47 479.89"/>
  <polygon class="cls-1" points="1135 359.89 839.51 359.89 839.51 357.85 823.68 357.85 829.81 224.06 1127.85 224.06 1135 359.89"/>
  <polygon class="cls-1" points="1091.26 403.69 1091.26 360.46 1135 359.89 1127.85 224.06 1319.51 224.06 1330.4 303.38 1360.7 303.72 1373.98 393.26 1387.26 394.28 1396.79 478.7 1130.91 478.7 1127.85 403.47 1091.26 403.69"/>
  <polygon class="cls-1" points="1099.94 559.72 1101.64 609.09 1150.66 609.09 1161.89 792.91 1406.66 792.91 1391.68 694.53 1424.02 692.49 1404.96 582.53 1417.55 571.3 1398.49 478.7 1130.91 478.7 1137.04 560.06 1099.94 559.72"/>
  <polygon class="cls-1" points="808.87 609.6 799.17 792.91 1161.89 792.91 1150.66 609.09 808.87 609.6"/>
  <polygon class="cls-1" points="829.29 566.36 829.36 609.57 808.87 609.6 799.17 792.91 511.17 792.91 516.28 754.11 468.28 752.06 501.47 479.89 763.94 479.89 756.28 566.7 829.29 566.36"/>
</svg>