<?xml version="1.0" encoding="UTF-8"?>
<svg xmlns="http://www.w3.org/2000/svg" viewBox="0 0 1920 1080" width="1920" height="1080">
  <defs>
    <style>
      .lot-boundary {
        fill: rgba(255, 193, 7, 0.1);
        stroke: #FFC107;
        stroke-width: 2;
        stroke-linejoin: round;
        cursor: pointer;
        transition: all 0.3s ease;
      }
      .lot-boundary:hover {
        fill: rgba(255, 193, 7, 0.3);
        stroke: #FFA000;
        stroke-width: 3;
      }
      .background {
        fill: #f5f5f5;
      }
    </style>
  </defs>

  <!-- Background -->
  <rect class="background" width="1920" height="1080"/>

  <!-- Top Row: Lotes 01-10 (left to right) -->
  <path id="lote-01" class="lot-boundary"
        d="M349.08,393.88h35.85v141.82h-81.49v-96.29c0-25.15,20.43-45.53,45.64-45.53Z"/>
  <rect id="lote-02" class="lot-boundary" x="384.94" y="393.87" width="75.68" height="141.83"/>
  <rect id="lote-03" class="lot-boundary" x="460.62" y="393.88" width="75.54" height="141.82"/>
  <rect id="lote-04" class="lot-boundary" x="536.16" y="393.88" width="75.53" height="141.82"/>
  <rect id="lote-05" class="lot-boundary" x="611.69" y="393.88" width="75.53" height="141.82"/>
  <rect id="lote-06" class="lot-boundary" x="687.22" y="393.88" width="75.69" height="141.82"/>
  <rect id="lote-07" class="lot-boundary" x="762.91" y="393.88" width="75.53" height="141.82"/>
  <path id="lote-08" class="lot-boundary"
        d="M838.44,393.88h37.73c24.24,0,43.91,19.68,43.91,43.91v97.91h-81.65v-141.82Z"/>
  <path id="lote-09" class="lot-boundary"
        d="M950.51,394.14h80.72v96.1c0,25.06-20.34,45.4-45.4,45.4h-35.32v-141.5Z"
        transform="translate(1981.75 929.79) rotate(-180)"/>
  <rect id="lote-10" class="lot-boundary" x="1031.08" y="394.14" width="75.3" height="141.51"/>

  <!-- Bottom Row: Lotes 11-20 (left to right) -->
  <path id="lote-11" class="lot-boundary"
        d="M303.45,535.7h39.22c23.33,0,42.27,18.94,42.27,42.27v98.67h-81.49v-140.94Z"
        transform="translate(688.39 1212.34) rotate(180)"/>
  <rect id="lote-12" class="lot-boundary" x="384.94" y="535.7" width="75.68" height="140.94"/>
  <rect id="lote-13" class="lot-boundary" x="460.62" y="535.7" width="75.54" height="140.94"/>
  <rect id="lote-14" class="lot-boundary" x="536.16" y="535.7" width="75.53" height="140.94"/>
  <rect id="lote-15" class="lot-boundary" x="611.69" y="535.7" width="75.53" height="140.94"/>
  <rect id="lote-16" class="lot-boundary" x="687.22" y="535.7" width="75.69" height="140.94"/>
  <rect id="lote-17" class="lot-boundary" x="762.91" y="535.7" width="75.53" height="140.94"/>
  <path id="lote-18" class="lot-boundary"
        d="M838.44,535.7h81.65v97.11c0,24.18-19.63,43.82-43.82,43.82h-37.83v-140.93Z"/>
  <path id="lote-19" class="lot-boundary"
        d="M993.84,676.64h37.39v-140.99h-80.72v93.73c0,27.86,15.58,47.26,43.33,47.26Z"/>
  <rect id="lote-20" class="lot-boundary" x="1031.08" y="535.64" width="75.3" height="140.62"/>
</svg>
